<?xml version="1.0" encoding="utf-8"?>
<!-- Generator: Adobe Illustrator 25.0.1, SVG Export Plug-In . SVG Version: 6.00 Build 0)  -->
<svg version="1.1" id="레이어_1" xmlns="http://www.w3.org/2000/svg" xmlns:xlink="http://www.w3.org/1999/xlink" x="0px"
	 y="0px" viewBox="0 0 283.5 113.4" style="enable-background:new 0 0 283.5 113.4;" xml:space="preserve">
<style type="text/css">
	.st0{fill:#035693;}
</style>
<g>
	<path class="st0" d="M170.1,18.1c0.5,0.5,1,0.9,1.5,1.4C170.8,18.7,170.3,18.3,170.1,18.1z"/>
	<path class="st0" d="M178.3,29.5c-0.9-1.5-1.7-2.8-2.4-4C176.5,26.7,177.3,28,178.3,29.5z"/>
	<path class="st0" d="M268.5,81.1l-6.3-6.3c-1.9-1.4-3.3,0.4-3.3,0.4c-6.1,8.7-16,13.9-26.6,13.9c-17.9,0-32.4-14.6-32.4-32.4
		c0-17.9,14.6-32.4,32.4-32.4c10.6,0,20.6,5.2,26.7,14c0,0,0.6,0.8,1.6,0.9c0.6,0.1,1.2-0.1,1.8-0.6l6.2-6.2
		c1.6-1.7,0.1-3.7,0.1-3.7c-8.8-11.4-22.1-17.9-36.4-17.9c-21.1,0-39.4,14.2-44.6,34.6c-3.4-5.7-6.9-11.4-9.4-15.7l0,0c0,0,0,0,0,0
		c-0.9-1.5-1.7-2.9-2.4-4c-1.9-3.1-3.4-4.9-4.4-6c-0.5-0.5-1-1-1.5-1.4c-0.1-0.1-0.2-0.2-0.2-0.2s0,0,0.1,0.1
		c-3.6-3.4-7.7-5.8-12.3-7.2c-3.4-1.1-7.2-1.7-11.1-1.7h-0.5c-10,0-17.9,3.5-23.6,10.4c-4,4.8-6.1,10.9-6.1,17
		c0.2,20,16.6,23.6,28.5,26.1l0.6,0.1c10.2,2.1,19.1,4,18.8,13.6c-0.2,5.2-2.4,8.9-6.9,11.3c-4.6,2.5-9.6,2.7-11.1,2.7H146
		c-7.3,0-13.4-3.4-18.1-10.1c-0.8-1.2-1.6-2.5-2.4-3.9l-0.2-0.4L105,42.2l-5.2-8.9c0-0.1-0.1-0.1-0.1-0.2c-0.1-0.1-0.1-0.2-0.2-0.3
		l-0.1-0.2l0,0c-4-6.5-9.7-12-16.4-15.8c-6.9-4-14.8-6.1-22.8-6.1c-25.4,0-46,20.6-46,46c0,25.4,20.6,46,46,46
		c20.9,0,39.2-14.1,44.5-34.2l11.5,18.8l1.2,1.9c0,0.1,0.1,0.1,0.1,0.2l0.1,0.1c0.1,0.2,0.2,0.3,0.3,0.4c1,1.5,2.2,2.8,3.4,4.1
		c6.6,6.7,15.6,10.3,25.6,10.3c25,0,30.9-19.7,31.1-27.3c0.7-21.6-16.9-25.5-28.6-28l-2-0.4l-0.8-0.2c-8.1-1.8-16.5-3.8-16.7-12.2
		c-0.1-2.4,0.6-4.6,2-6.8c2.8-4.3,8.1-6.8,14.1-6.8l0.1,0c0.4,0,1.1,0,2.1,0.1c0.2,0,0.3,0,0.5,0.1c0,0,0,0,0,0
		c0.5,0.1,1.1,0.2,1.7,0.3c0,0,0.1,0,0.1,0c0.2,0,0.3,0.1,0.5,0.1c0.1,0,0.1,0,0.2,0c0.2,0,0.3,0.1,0.5,0.1c0,0,0.1,0,0.1,0
		c0.4,0.1,0.9,0.2,1.3,0.4c0.1,0,0.1,0,0.2,0.1c0.2,0.1,0.3,0.1,0.5,0.2c0.1,0,0.1,0.1,0.2,0.1c0.2,0.1,0.3,0.1,0.5,0.2
		c0.1,0,0.1,0.1,0.2,0.1c0.2,0.1,0.4,0.2,0.6,0.2c0.1,0,0.1,0,0.2,0.1c0.2,0.1,0.5,0.2,0.7,0.3c0,0,0.1,0,0.1,0.1
		c0.2,0.1,0.4,0.2,0.6,0.3c0.1,0,0.1,0.1,0.2,0.1c0.2,0.1,0.4,0.2,0.5,0.3c0.1,0,0.2,0.1,0.2,0.1c0.2,0.1,0.4,0.2,0.5,0.3
		c0.1,0,0.1,0.1,0.2,0.1c0.3,0.2,0.5,0.3,0.8,0.5c0,0,0,0,0,0c0,0,0,0,0,0c1.6,1.3,3.1,2.9,4.4,4.8c0.8,1.1,1.5,2.2,2.1,3.5l0.2,0.4
		l5.5,9.1c7.5,12.6,16.9,28.2,19.1,31.7c3.7,7.7,9.5,14.3,16.7,18.9c7.4,4.8,16,7.3,24.9,7.3c14.4,0,27.8-6.6,36.6-18.1
		C268.8,84.6,270,82.8,268.5,81.1z M60.2,89.2c-17.9,0-32.4-14.6-32.4-32.4s14.6-32.4,32.4-32.4c17.9,0,32.4,14.6,32.4,32.4
		S78.1,89.2,60.2,89.2z"/>
	<polygon class="st0" points="178.3,29.5 178.3,29.5 178.3,29.5 	"/>
	<path class="st0" d="M170.1,18.1C170,18.1,170,18,170.1,18.1c-0.2-0.1-0.2-0.2-0.2-0.2S169.9,18,170.1,18.1z"/>
</g>
</svg>
